<?xml version="1.0" standalone="no"?>
<!DOCTYPE svg PUBLIC "-//W3C//DTD SVG 20010904//EN"
 "http://www.w3.org/TR/2001/REC-SVG-20010904/DTD/svg10.dtd">
<svg version="1.0" xmlns="http://www.w3.org/2000/svg"
 width="800.000000pt" height="800.000000pt" viewBox="0 0 800.000000 800.000000"
 preserveAspectRatio="xMidYMid meet">
<metadata>
Created by potrace 1.15, written by Peter Selinger 2001-2017
</metadata>
<g transform="translate(0.000000,800.000000) scale(0.100000,-0.100000)"
fill="#000000" stroke="none">
<path d="M3855 7758 c-11 -6 -42 -29 -69 -51 -78 -61 -157 -96 -300 -132 -193
-48 -246 -80 -309 -182 -15 -23 -30 -44 -36 -47 -5 -3 -38 7 -73 24 -90 43
-170 41 -358 -6 -194 -48 -248 -48 -335 1 -99 55 -117 46 -151 -80 -20 -73
-47 -100 -180 -180 -54 -32 -127 -85 -161 -118 -82 -79 -103 -132 -103 -262 0
-59 -4 -95 -10 -95 -6 0 -38 14 -71 31 -79 39 -141 47 -209 24 -64 -21 -234
-134 -309 -204 -79 -73 -126 -94 -217 -93 -72 1 -75 0 -68 -20 3 -12 6 -53 6
-92 1 -88 -22 -156 -99 -291 -116 -206 -116 -204 -121 -274 -9 -127 43 -232
123 -247 76 -14 41 -47 -73 -68 -96 -18 -116 -30 -200 -121 -42 -45 -65 -78
-72 -107 -18 -66 -116 -262 -151 -303 -17 -20 -51 -47 -76 -61 -24 -15 -50
-36 -58 -47 -16 -23 -20 -83 -6 -91 4 -3 16 -27 26 -53 10 -26 24 -56 33 -65
12 -15 13 -42 6 -185 -10 -186 -3 -311 21 -384 21 -62 93 -143 157 -175 56
-29 55 -41 -11 -93 -61 -48 -84 -113 -89 -251 -3 -89 1 -141 17 -230 12 -63
21 -138 21 -167 0 -61 -31 -151 -66 -193 -38 -45 -29 -70 31 -92 108 -38 149
-91 304 -388 58 -113 135 -176 283 -235 93 -37 103 -51 88 -116 -17 -71 -9
-263 14 -306 9 -18 67 -86 129 -152 142 -151 161 -186 165 -307 l4 -92 100 -7
c132 -9 174 -23 293 -96 174 -106 158 -101 324 -97 120 2 151 6 173 21 14 10
29 14 32 9 3 -5 10 -45 14 -88 5 -45 18 -98 30 -120 30 -60 111 -127 189 -159
232 -96 307 -136 370 -201 42 -43 47 -57 58 -157 6 -50 9 -57 28 -57 33 0 65
26 102 85 29 45 39 53 74 59 22 3 176 6 343 6 172 0 318 4 337 9 50 15 76 36
112 88 18 27 33 49 34 51 2 2 29 -24 61 -56 72 -71 184 -130 265 -139 40 -4
79 1 139 17 47 12 117 22 155 22 123 1 264 -55 284 -114 22 -62 80 -22 148
102 65 119 90 137 238 176 216 58 328 116 396 205 32 42 59 93 59 113 0 8 4
26 10 40 l9 25 68 -32 c61 -29 77 -32 158 -32 81 0 97 3 155 32 36 18 97 57
135 88 142 112 161 125 198 135 27 8 48 8 71 0 34 -11 123 -16 131 -8 3 2 -1
30 -7 60 l-12 56 46 54 c25 29 92 94 149 143 220 192 224 199 223 345 0 64 -7
129 -17 166 -32 117 -24 135 64 148 67 10 161 70 246 159 65 68 82 95 142 220
89 185 91 188 172 196 63 6 64 6 67 38 3 25 -3 38 -27 59 -16 14 -33 38 -36
53 -3 14 4 80 15 146 13 74 23 190 27 305 7 213 -3 268 -60 335 -36 42 -57 77
-57 94 0 17 31 41 54 41 31 0 102 64 115 103 6 17 17 124 26 237 22 298 30
333 87 398 25 29 29 41 26 80 l-3 47 -45 5 c-75 9 -66 -6 -164 275 -76 216
-106 289 -147 355 -40 65 -75 89 -151 101 -127 20 -124 16 -76 85 l33 46 0
126 c0 151 -7 171 -111 314 -106 148 -120 195 -101 345 l8 62 -58 16 c-193 53
-230 77 -343 214 -93 115 -153 163 -237 192 -71 24 -179 30 -216 10 -36 -19
-53 -3 -62 56 -23 156 -136 282 -402 447 -99 62 -119 82 -153 152 -31 62 -50
70 -118 49 -68 -22 -156 -16 -291 20 -78 20 -118 25 -222 25 -172 0 -224 -12
-271 -61 -21 -22 -41 -39 -46 -39 -5 0 -12 13 -15 29 -8 38 -58 95 -111 126
-39 22 -177 54 -306 70 -77 9 -167 33 -210 55 -20 10 -53 39 -74 64 -38 47
-56 54 -91 34z m540 -564 c377 -41 696 -135 1070 -319 535 -262 980 -653 1310
-1150 289 -437 449 -875 517 -1420 18 -149 15 -552 -5 -705 -53 -389 -159
-737 -323 -1060 -521 -1028 -1592 -1734 -2728 -1800 -403 -23 -643 -7 -989 66
-489 103 -965 328 -1347 635 -286 229 -540 501 -718 767 -486 728 -652 1617
-458 2468 105 464 324 915 632 1299 111 138 376 404 513 514 520 415 1189 677
1845 721 162 10 508 2 681 -16z"/>
<path d="M3735 7084 c-16 -2 -79 -9 -140 -15 -346 -33 -753 -153 -1078 -315
-334 -168 -595 -361 -864 -638 -479 -494 -784 -1132 -858 -1797 -27 -246 -18
-608 21 -849 77 -471 293 -967 597 -1370 84 -111 405 -436 527 -534 489 -390
1104 -639 1723 -697 189 -17 604 -7 782 20 1081 166 1970 810 2429 1761 205
425 300 846 299 1325 -1 492 -99 904 -323 1360 -304 618 -795 1109 -1415 1415
-384 190 -748 291 -1185 330 -106 9 -445 12 -515 4z m646 -198 c597 -85 1134
-322 1583 -697 110 -93 306 -293 399 -409 323 -402 539 -892 619 -1401 18
-122 22 -186 22 -414 1 -282 -6 -359 -49 -576 -97 -477 -307 -914 -619 -1285
-99 -118 -318 -333 -436 -427 -425 -342 -995 -585 -1515 -647 -147 -17 -526
-24 -690 -11 -526 39 -1082 245 -1521 562 -147 107 -253 200 -405 357 -766
787 -1022 1910 -673 2949 288 855 988 1547 1879 1856 203 70 492 133 720 156
130 14 559 5 686 -13z"/>
<path d="M3930 6871 c-64 -20 -114 -60 -153 -122 -10 -17 -28 -29 -52 -33 -35
-7 -36 -8 -33 -48 2 -34 8 -44 33 -58 39 -21 42 -41 44 -227 l1 -153 59 0 58
0 7 187 c4 103 10 191 13 196 6 10 161 2 223 -11 l35 -8 -25 -16 c-14 -9 -63
-33 -110 -54 -47 -21 -91 -42 -98 -48 -15 -11 -10 -53 18 -142 l18 -59 80 0
c68 0 85 -3 112 -23 39 -29 89 -38 113 -20 21 16 36 121 37 253 0 97 3 106 38
124 18 10 22 20 22 60 l0 49 -209 3 c-115 2 -213 7 -217 12 -4 4 0 15 9 25 20
19 122 24 190 8 34 -8 37 -6 37 14 0 36 -19 61 -63 81 -44 19 -139 24 -187 10z"/>
<path d="M4460 6654 c-17 -45 -12 -74 15 -84 33 -12 32 -20 -10 -60 -45 -44
-57 -77 -39 -118 18 -45 53 -59 105 -43 38 11 45 10 85 -11 41 -21 46 -22 72
-8 35 20 40 65 13 119 -26 49 -26 51 -2 51 34 0 44 -25 39 -100 -5 -96 -23
-113 -158 -151 -57 -15 -108 -33 -113 -38 -7 -7 -5 -23 4 -48 13 -33 25 -43
95 -78 44 -22 95 -52 113 -67 18 -16 38 -28 46 -28 15 0 10 -14 92 225 75 218
84 239 118 261 46 30 24 85 -46 114 -38 16 -58 7 -71 -31 l-10 -30 -20 33
c-29 47 -35 50 -110 43 -45 -4 -68 -2 -73 5 -12 19 -97 70 -117 70 -11 0 -23
-11 -28 -26z"/>
<path d="M2825 6492 c-128 -56 -267 -132 -272 -149 -3 -7 11 -28 29 -48 l33
-36 119 51 c65 28 123 49 129 47 5 -1 -35 -56 -89 -122 l-98 -118 69 -64 c38
-35 75 -63 83 -63 7 0 27 8 45 17 21 12 65 19 132 23 l100 5 3 32 c2 20 -17
95 -47 187 -28 85 -51 172 -51 195 0 63 -15 91 -47 91 -16 0 -78 -22 -138 -48z"/>
<path d="M5230 6533 c-8 -3 -28 -17 -43 -29 -19 -16 -36 -22 -51 -18 -38 9
-69 -39 -61 -93 6 -39 -1 -57 -66 -195 -79 -166 -79 -172 -15 -197 48 -18 46
-20 135 151 40 75 78 141 85 147 10 8 28 3 72 -19 74 -39 158 -99 149 -108 -4
-4 -65 -7 -137 -7 l-131 0 -23 -80 c-13 -44 -24 -84 -24 -90 0 -5 29 -25 65
-44 67 -34 99 -67 110 -114 7 -28 48 -67 69 -67 7 0 58 70 114 155 82 125 109
158 141 174 37 19 51 37 51 65 0 8 -64 52 -142 99 -79 47 -161 102 -183 122
l-40 36 56 -4 c43 -2 70 -12 118 -42 53 -32 68 -36 90 -29 33 12 36 31 11 71
-26 44 -92 90 -153 108 -49 15 -167 19 -197 8z"/>
<path d="M2410 6269 c-46 -47 -48 -60 -19 -100 l20 -29 -69 0 c-102 0 -164
-22 -194 -67 -77 -119 -68 -263 17 -263 10 0 34 19 55 41 47 51 70 48 70 -9 0
-45 16 -63 58 -64 41 -1 50 7 63 55 45 168 49 179 66 165 9 -7 40 -45 69 -85
l54 -73 38 15 c20 9 46 24 56 35 19 19 19 20 -14 72 -100 159 -131 215 -144
262 -16 55 -41 86 -69 86 -9 0 -35 -19 -57 -41z"/>
<path d="M5736 6079 c-27 -31 -34 -63 -16 -74 18 -11 11 -23 -80 -119 -85 -90
-90 -98 -90 -138 0 -93 18 -108 98 -84 l49 14 -33 -56 c-41 -67 -42 -91 -8
-131 28 -34 44 -39 44 -15 0 59 79 137 150 149 49 8 70 35 70 91 l0 41 -57 16
c-32 9 -76 19 -98 23 l-39 7 44 38 c25 22 52 39 61 39 20 0 156 -134 165 -162
4 -13 -5 -32 -31 -61 -19 -23 -56 -72 -80 -109 -24 -37 -58 -74 -75 -83 -52
-27 -52 -103 1 -97 13 1 51 15 84 31 l60 30 -47 -41 c-27 -22 -48 -46 -48 -54
0 -17 58 -84 74 -84 6 0 57 36 113 79 146 114 174 131 210 131 46 0 83 17 83
37 0 39 -102 166 -269 337 -170 172 -283 276 -301 276 -4 0 -20 -14 -34 -31z"/>
<path d="M2899 5969 c-42 -42 2 -109 71 -109 48 0 70 24 70 77 0 47 -9 53 -76
53 -31 0 -50 -6 -65 -21z"/>
<path d="M3760 5973 c-512 -52 -958 -267 -1310 -629 -280 -289 -444 -596 -525
-984 -33 -154 -45 -458 -26 -617 36 -288 127 -556 266 -778 277 -441 680 -758
1152 -905 202 -62 326 -81 578 -87 269 -6 443 10 621 56 670 176 1204 653
1437 1281 79 214 107 385 107 660 0 196 -14 337 -45 460 -205 817 -899 1422
-1759 1535 -106 14 -395 19 -496 8z m397 -183 c357 -27 782 -201 1063 -435
318 -265 546 -640 632 -1040 25 -118 35 -403 19 -540 -35 -296 -125 -541 -289
-786 -79 -117 -155 -204 -290 -332 -222 -209 -480 -357 -768 -440 -264 -76
-754 -87 -1019 -23 -558 136 -1013 506 -1265 1028 -138 285 -189 546 -169 858
28 427 191 799 488 1112 414 436 974 645 1598 598z"/>
<path d="M3990 4941 c-65 -92 -139 -308 -147 -428 -8 -114 7 -161 74 -233 29
-32 53 -63 53 -68 0 -19 -35 -31 -137 -47 -54 -9 -129 -24 -168 -35 -179 -49
-339 -47 -503 5 -42 14 -91 25 -109 25 -17 0 -35 4 -38 10 -3 5 16 34 43 62
71 76 85 109 84 193 -1 75 -26 175 -85 338 -54 149 -72 168 -125 131 -51 -35
-164 -311 -178 -430 -11 -100 13 -163 92 -240 61 -60 72 -84 39 -84 -28 0 -85
-61 -96 -103 -31 -117 47 -235 215 -323 l70 -37 370 6 c401 7 475 14 566 52
33 14 70 25 83 25 13 0 61 -18 106 -40 l84 -41 306 11 c441 16 478 22 540 97
52 63 74 117 74 187 0 76 -11 99 -70 151 l-45 41 51 84 c61 102 78 166 63 237
-19 85 -51 160 -108 245 -29 45 -57 91 -60 102 -10 32 -35 56 -59 56 -28 0
-46 -36 -79 -156 -13 -49 -35 -109 -49 -134 -31 -56 -40 -120 -27 -188 9 -51
30 -86 105 -180 19 -24 32 -49 29 -57 -6 -16 -49 -29 -129 -40 -27 -4 -66 -14
-85 -22 -25 -11 -68 -16 -145 -15 -91 0 -132 5 -232 31 -67 17 -135 31 -153
31 -46 0 -100 26 -100 48 0 10 16 34 36 53 47 45 75 100 81 164 7 67 -10 138
-59 248 -21 48 -46 120 -54 160 -19 91 -42 131 -76 135 -19 2 -31 -5 -48 -27z"/>
<path d="M3215 3623 c-57 -5 -94 -34 -146 -114 -34 -53 -38 -114 -14 -196 17
-56 74 -117 122 -130 16 -5 395 -8 843 -8 929 1 876 -4 973 85 l52 48 -1 74
c0 103 -35 176 -102 216 l-47 27 -305 0 -305 0 -58 -34 c-101 -58 -212 -55
-293 10 l-37 29 -316 -2 c-174 -1 -338 -3 -366 -5z"/>
<path d="M1824 5743 c-79 -82 -144 -153 -144 -159 0 -12 65 -74 78 -74 4 0 43
36 87 80 43 44 80 78 82 77 1 -2 -7 -36 -17 -77 -27 -102 -25 -116 13 -152 44
-42 117 -88 139 -88 11 0 32 21 53 54 37 58 42 61 123 71 28 4 62 15 74 25 22
17 22 18 4 46 -10 16 -72 80 -137 142 -66 63 -119 120 -119 127 0 23 -51 75
-72 75 -14 0 -71 -52 -164 -147z"/>
<path d="M2489 5809 c-33 -12 -69 -76 -69 -124 0 -54 44 -95 102 -95 58 0 107
27 141 77 24 37 33 43 75 48 70 10 82 15 82 33 0 31 -16 42 -71 51 -87 15
-232 20 -260 10z"/>
<path d="M1602 5458 c-17 -21 -170 -331 -174 -352 -4 -27 35 -46 98 -46 34 0
78 -11 138 -35 100 -41 163 -52 195 -36 26 15 27 47 1 121 -10 30 -18 56 -16
57 1 1 26 -9 55 -24 43 -20 63 -24 98 -19 56 7 83 22 83 45 0 22 -19 31 -63
31 -49 0 -104 40 -161 115 -28 38 -59 73 -68 79 -44 27 -76 -43 -77 -171 -1
-40 -4 -73 -8 -73 -16 1 -88 47 -86 56 1 5 23 54 48 110 25 56 43 108 40 116
-12 32 -83 49 -103 26z"/>
<path d="M6328 5394 c-16 -8 -28 -17 -28 -19 0 -3 32 -70 72 -149 63 -126 70
-146 58 -161 -12 -15 -16 -11 -32 34 -12 30 -27 52 -39 56 -13 4 -19 15 -19
36 0 68 -48 99 -152 99 -99 0 -158 -51 -174 -147 -5 -36 -3 -45 19 -67 30 -30
96 -36 117 -11 13 15 10 96 -4 127 -14 31 22 34 51 6 l25 -25 -21 -41 c-12
-23 -21 -48 -21 -56 0 -24 31 -34 87 -29 87 9 63 -25 -59 -86 -89 -45 -96 -56
-80 -118 7 -26 15 -50 18 -53 3 -2 79 32 168 78 151 76 167 82 224 82 48 0 62
3 62 15 0 24 -56 160 -127 308 -60 124 -69 137 -92 137 -14 -1 -38 -8 -53 -16z"/>
<path d="M1351 4937 c-16 -40 -46 -134 -65 -208 -33 -126 -96 -408 -96 -430 0
-10 88 -2 127 12 12 5 31 26 43 49 13 25 27 40 39 40 23 0 78 -61 87 -95 11
-45 69 -59 124 -30 37 19 64 72 78 153 9 50 19 72 47 103 21 23 35 49 35 65 0
31 -18 39 -207 94 -75 22 -141 44 -146 49 -5 5 -6 24 -2 41 l7 33 53 -7 c29
-3 102 -21 162 -40 164 -52 156 -53 171 23 7 35 11 65 10 66 -2 1 -66 18 -143
39 -159 43 -195 59 -195 85 0 22 -19 31 -65 31 -32 0 -34 -3 -64 -73z m145
-363 c87 -22 104 -30 99 -43 -4 -9 -9 -31 -12 -48 -3 -18 -9 -33 -14 -33 -6 0
-73 77 -85 98 -1 2 -34 -13 -74 -33 l-72 -36 7 43 c8 49 21 78 36 78 5 0 57
-12 115 -26z"/>
<path d="M6593 4870 c-17 -7 -23 -18 -23 -39 0 -16 -5 -33 -11 -37 -10 -6 -40
-68 -63 -129 -7 -18 -14 -14 -61 39 -52 58 -55 60 -80 46 -15 -8 -43 -28 -63
-46 l-37 -32 18 -65 c21 -81 22 -126 1 -156 -16 -22 -16 -102 0 -118 3 -3 75
1 158 11 187 20 219 20 244 1 37 -28 104 -17 104 18 0 18 -99 498 -105 504 -6
9 -64 11 -82 3z m17 -267 c6 -32 13 -70 16 -84 l5 -27 -83 -6 c-46 -4 -100 -9
-120 -12 l-38 -6 0 51 c0 28 4 51 9 51 6 0 26 -9 45 -21 48 -28 68 -19 113 51
21 33 39 60 40 60 1 0 7 -26 13 -57z"/>
<path d="M6126 4578 c-9 -12 -16 -38 -16 -58 0 -55 23 -80 74 -80 76 0 102 67
50 129 -33 39 -84 43 -108 9z"/>
<path d="M6213 3493 c-12 -9 -96 -310 -109 -392 -6 -36 -4 -46 11 -58 25 -18
80 -17 95 2 7 8 20 15 30 15 9 0 29 9 44 21 14 11 30 18 36 14 12 -7 30 -71
30 -107 0 -21 6 -29 26 -34 32 -8 129 3 158 17 60 32 75 62 85 168 6 73 6 74
41 85 37 12 67 53 57 78 -3 10 -72 37 -180 72 -150 49 -178 61 -199 87 -18 24
-33 32 -68 35 -25 3 -50 1 -57 -3z m166 -211 c84 -30 109 -57 118 -120 6 -48
-3 -95 -19 -90 -6 2 -18 23 -27 47 -20 55 -51 78 -120 91 -30 6 -56 11 -57 13
-4 4 20 87 26 86 3 0 38 -12 79 -27z"/>
<path d="M1643 3480 c-15 -6 -23 -21 -28 -52 -7 -45 -29 -78 -51 -78 -6 0 -31
16 -54 35 -49 41 -85 45 -125 13 -84 -66 -84 -206 -1 -305 25 -30 26 -33 9
-39 -38 -12 -48 -22 -57 -56 -12 -48 -3 -68 31 -68 15 0 106 23 201 50 95 28
179 50 187 50 16 0 31 -39 18 -50 -4 -5 -71 -36 -148 -69 -77 -34 -148 -70
-159 -80 -10 -11 -20 -39 -23 -65 -6 -46 -5 -46 24 -46 16 0 74 18 129 40 164
67 233 90 239 80 10 -16 51 -11 76 8 22 19 22 19 6 78 -35 125 -168 519 -183
541 -15 24 -50 29 -91 13z m-136 -265 l35 -35 65 35 64 35 9 -26 c17 -43 12
-54 -32 -74 -82 -37 -147 -19 -183 50 -31 60 -10 67 42 15z"/>
<path d="M6076 2996 c-41 -42 -236 -348 -236 -368 0 -8 20 -26 45 -39 54 -29
46 -36 143 122 39 64 79 122 87 129 27 23 28 2 1 -30 -14 -18 -29 -44 -32 -58
-4 -15 -19 -40 -35 -57 -36 -39 -59 -94 -59 -144 0 -52 41 -100 116 -137 67
-33 105 -29 205 21 61 31 69 38 69 64 0 16 -8 39 -18 51 l-18 23 -58 -22 c-31
-11 -67 -21 -81 -21 -27 0 -85 45 -85 66 0 17 1 17 36 -1 31 -16 56 -18 92 -9
28 8 28 32 2 84 -24 47 -25 63 -5 80 11 9 31 7 98 -13 91 -27 124 -26 158 6
l22 21 -26 20 c-15 12 -81 52 -148 90 -67 38 -144 89 -171 113 -27 24 -54 43
-60 43 -6 0 -25 -15 -42 -34z"/>
<path d="M1931 2795 c-41 -35 -39 -59 8 -132 21 -33 44 -71 51 -84 12 -26 -8
-5 -82 84 -21 24 -48 47 -62 49 -46 9 -133 -12 -159 -38 -30 -30 -37 -62 -37
-171 0 -91 1 -88 -74 -147 -29 -23 -30 -24 -17 -66 l13 -43 71 6 c78 5 97 19
97 69 0 27 2 28 49 28 42 0 53 4 70 26 21 27 26 60 15 102 -5 17 -14 22 -41
22 -44 0 -73 16 -73 40 0 25 29 40 56 30 23 -9 48 -38 97 -115 39 -61 67 -68
129 -31 33 19 47 22 61 15 22 -13 58 8 83 46 15 23 15 27 -2 53 -39 61 -174
239 -197 260 l-24 23 -32 -26z"/>
<path d="M5620 2423 c-107 -102 -223 -212 -257 -245 -35 -32 -63 -65 -63 -74
0 -18 48 -64 67 -64 7 0 32 17 56 38 78 69 92 77 45 25 -58 -63 -68 -95 -41
-131 32 -43 61 -54 133 -48 36 3 81 8 100 12 l35 7 -22 -25 c-24 -26 -29 -53
-13 -78 14 -23 158 -27 199 -6 38 20 67 65 76 117 8 48 20 57 79 61 27 2 51 8
53 14 2 7 -66 84 -152 173 -131 135 -155 164 -145 176 7 8 19 15 27 15 7 0 55
-40 106 -89 51 -48 103 -94 116 -101 28 -15 120 -6 147 15 18 13 9 24 -124
152 -93 90 -142 145 -142 159 0 20 -58 84 -75 84 -6 -1 -98 -85 -205 -187z
m125 -234 l75 -72 0 -62 c0 -68 -4 -78 -29 -65 -9 5 -23 11 -32 13 -9 3 -21
25 -28 51 -20 81 -69 87 -143 19 -28 -27 -48 -41 -43 -33 5 8 31 35 57 58 52
48 61 79 32 120 -8 12 -12 27 -9 32 15 23 50 6 120 -61z"/>
<path d="M2192 2477 c-10 -12 -27 -34 -37 -49 -17 -28 -17 -28 26 -79 l43 -52
-34 19 c-45 23 -134 24 -178 1 -48 -26 -74 -73 -69 -124 6 -57 36 -94 107
-132 l60 -32 -20 -26 c-30 -38 -22 -153 10 -153 5 0 76 63 156 140 118 114
151 140 174 140 19 0 36 9 49 26 42 53 33 68 -123 211 l-144 132 -20 -22z"/>
<path d="M2507 2173 c-22 -25 -32 -71 -18 -86 8 -10 3 -30 -20 -77 -36 -77
-45 -135 -30 -183 14 -41 63 -87 92 -87 18 0 20 -4 13 -47 -3 -27 -8 -51 -10
-54 -2 -4 -21 -2 -42 4 -22 6 -46 7 -55 4 -22 -8 -22 -50 -1 -82 9 -15 12 -25
6 -25 -20 0 -65 67 -86 127 -22 60 -43 76 -71 53 -34 -28 -4 -155 53 -220 58
-69 115 -86 187 -56 38 16 55 42 55 84 0 20 12 41 40 70 21 23 51 63 66 89 51
88 125 194 140 200 18 7 44 55 44 81 0 26 -31 52 -145 117 -55 31 -114 68
-132 81 -38 28 -64 30 -86 7z"/>
<path d="M4940 2151 c-46 -14 -87 -40 -113 -71 -33 -39 -53 -129 -38 -172 11
-32 3 -47 -26 -48 -42 0 -7 -83 45 -108 30 -14 47 -38 108 -152 40 -74 82
-142 94 -152 14 -11 39 -18 67 -18 l46 0 -6 35 c-3 20 -41 105 -83 191 -45 91
-73 159 -68 164 10 10 184 91 184 86 0 -2 -21 -16 -46 -32 -86 -55 -108 -136
-59 -220 20 -35 34 -46 68 -55 52 -14 114 -6 168 22 37 19 42 19 58 5 23 -21
151 -23 151 -2 0 7 -41 85 -91 172 -51 88 -98 177 -106 199 -25 71 -40 87 -75
79 -17 -3 -92 -36 -165 -72 -111 -55 -136 -63 -144 -51 -13 20 -2 61 22 81 10
9 42 21 71 27 80 18 97 42 58 81 -21 21 -72 25 -120 11z"/>
<path d="M2896 1948 c-11 -34 -14 -75 -7 -86 4 -7 27 -22 52 -35 47 -24 59
-50 36 -81 -13 -18 -15 -18 -40 -2 -57 38 -101 -2 -93 -84 5 -51 103 -255 140
-289 19 -18 28 -20 49 -12 34 13 34 23 -3 114 -36 90 -37 105 -7 116 31 12 42
27 67 91 13 32 37 69 61 91 68 63 64 68 -124 150 -92 41 -125 47 -131 27z"/>
<path d="M3636 1929 c-83 -20 -136 -75 -136 -140 0 -12 -8 -23 -20 -26 -27 -7
-32 -82 -7 -112 9 -10 11 -68 9 -197 l-3 -183 42 -31 c73 -53 71 -58 89 210
15 224 -2 200 143 199 133 -1 170 -7 175 -29 2 -12 -14 -15 -86 -15 -80 0 -93
-3 -130 -28 -101 -66 -109 -210 -16 -268 39 -24 128 -29 177 -10 37 14 47 7
47 -34 0 -25 8 -40 31 -59 32 -27 75 -43 87 -32 8 8 20 211 21 354 1 73 6 112
17 134 l16 30 14 -28 c8 -15 18 -49 21 -74 9 -76 21 -87 107 -95 42 -4 76 -10
76 -15 0 -10 -37 -20 -78 -20 -56 0 -72 -15 -72 -67 0 -41 5 -50 40 -85 46
-43 63 -46 105 -18 42 28 80 25 142 -10 64 -36 80 -37 95 -5 14 31 0 49 -83
102 -66 42 -74 55 -58 86 11 20 12 19 30 -15 39 -77 96 -95 178 -58 56 26 56
26 67 -12 9 -32 12 -33 67 -36 67 -4 66 -6 38 106 -31 123 -43 202 -42 280 0
70 -1 73 -26 83 -40 15 -593 -47 -610 -69 -12 -14 -13 -14 -13 1 0 15 -19 17
-202 17 -112 0 -209 4 -216 9 -26 16 -9 45 31 54 29 7 56 5 105 -8 94 -24 106
-24 110 2 5 34 -24 79 -63 97 -43 21 -164 29 -219 15z"/>
</g>
</svg>
